<mxfile host="Electron" modified="2023-10-09T16:51:28.614Z" agent="Mozilla/5.0 (Windows NT 10.0; Win64; x64) AppleWebKit/537.36 (KHTML, like Gecko) draw.io/22.0.2 Chrome/114.0.5735.289 Electron/25.8.4 Safari/537.36" etag="ehwfGffO79Y_2DlxgSKP" version="22.0.2" type="device">
  <diagram name="Page-1" id="c7558073-3199-34d8-9f00-42111426c3f3">
    <mxGraphModel dx="1118" dy="727" grid="1" gridSize="10" guides="1" tooltips="1" connect="1" arrows="1" fold="1" page="1" pageScale="1" pageWidth="826" pageHeight="1169" background="none" math="1" shadow="0">
      <root>
        <mxCell id="0" />
        <mxCell id="1" parent="0" />
        <mxCell id="GV4KcYSHg5XsuIcx_LRW-98" style="edgeStyle=orthogonalEdgeStyle;rounded=0;orthogonalLoop=1;jettySize=auto;html=1;exitX=0.5;exitY=1;exitDx=0;exitDy=0;exitPerimeter=0;" edge="1" parent="1" source="GV4KcYSHg5XsuIcx_LRW-96" target="GV4KcYSHg5XsuIcx_LRW-97">
          <mxGeometry relative="1" as="geometry" />
        </mxCell>
        <mxCell id="GV4KcYSHg5XsuIcx_LRW-96" value="CPT Data&amp;nbsp;" style="strokeWidth=2;html=1;shape=mxgraph.flowchart.database;whiteSpace=wrap;" vertex="1" parent="1">
          <mxGeometry x="220" y="240" width="60" height="40" as="geometry" />
        </mxCell>
        <mxCell id="GV4KcYSHg5XsuIcx_LRW-103" value="" style="edgeStyle=orthogonalEdgeStyle;rounded=0;orthogonalLoop=1;jettySize=auto;html=1;" edge="1" parent="1" source="GV4KcYSHg5XsuIcx_LRW-97" target="GV4KcYSHg5XsuIcx_LRW-102">
          <mxGeometry relative="1" as="geometry" />
        </mxCell>
        <mxCell id="GV4KcYSHg5XsuIcx_LRW-97" value="CPT, $$q_c, f_s,u_2$$" style="shape=parallelogram;html=1;strokeWidth=2;perimeter=parallelogramPerimeter;whiteSpace=wrap;rounded=1;arcSize=12;size=0.23;" vertex="1" parent="1">
          <mxGeometry x="120" y="310" width="260" height="60" as="geometry" />
        </mxCell>
        <mxCell id="GV4KcYSHg5XsuIcx_LRW-101" value="" style="edgeStyle=orthogonalEdgeStyle;rounded=0;orthogonalLoop=1;jettySize=auto;html=1;" edge="1" parent="1" source="GV4KcYSHg5XsuIcx_LRW-99" target="GV4KcYSHg5XsuIcx_LRW-96">
          <mxGeometry relative="1" as="geometry" />
        </mxCell>
        <mxCell id="GV4KcYSHg5XsuIcx_LRW-99" value="CPT Analysis" style="strokeWidth=2;html=1;shape=mxgraph.flowchart.start_1;whiteSpace=wrap;" vertex="1" parent="1">
          <mxGeometry x="200" y="170" width="100" height="40" as="geometry" />
        </mxCell>
        <mxCell id="GV4KcYSHg5XsuIcx_LRW-105" value="" style="edgeStyle=orthogonalEdgeStyle;rounded=0;orthogonalLoop=1;jettySize=auto;html=1;" edge="1" parent="1" source="GV4KcYSHg5XsuIcx_LRW-102" target="GV4KcYSHg5XsuIcx_LRW-104">
          <mxGeometry relative="1" as="geometry" />
        </mxCell>
        <mxCell id="GV4KcYSHg5XsuIcx_LRW-102" value="$$I_c, Q_{tn}, \gamma,\sigma_v&#39;$$" style="whiteSpace=wrap;html=1;strokeWidth=2;rounded=1;arcSize=12;" vertex="1" parent="1">
          <mxGeometry x="190" y="400" width="120" height="30" as="geometry" />
        </mxCell>
        <mxCell id="GV4KcYSHg5XsuIcx_LRW-109" value="" style="edgeStyle=orthogonalEdgeStyle;rounded=0;orthogonalLoop=1;jettySize=auto;html=1;" edge="1" parent="1" source="GV4KcYSHg5XsuIcx_LRW-104">
          <mxGeometry relative="1" as="geometry">
            <mxPoint x="360" y="492.5" as="targetPoint" />
          </mxGeometry>
        </mxCell>
        <mxCell id="GV4KcYSHg5XsuIcx_LRW-114" value="Yes" style="edgeLabel;html=1;align=center;verticalAlign=middle;resizable=0;points=[];" vertex="1" connectable="0" parent="GV4KcYSHg5XsuIcx_LRW-109">
          <mxGeometry x="0.0048" y="-1" relative="1" as="geometry">
            <mxPoint as="offset" />
          </mxGeometry>
        </mxCell>
        <mxCell id="GV4KcYSHg5XsuIcx_LRW-112" value="" style="edgeStyle=orthogonalEdgeStyle;rounded=0;orthogonalLoop=1;jettySize=auto;html=1;entryX=0.5;entryY=0;entryDx=0;entryDy=0;" edge="1" parent="1" source="GV4KcYSHg5XsuIcx_LRW-104" target="GV4KcYSHg5XsuIcx_LRW-111">
          <mxGeometry relative="1" as="geometry">
            <mxPoint x="250" y="590" as="targetPoint" />
          </mxGeometry>
        </mxCell>
        <mxCell id="GV4KcYSHg5XsuIcx_LRW-113" value="No" style="edgeLabel;html=1;align=center;verticalAlign=middle;resizable=0;points=[];" vertex="1" connectable="0" parent="GV4KcYSHg5XsuIcx_LRW-112">
          <mxGeometry x="-0.0303" relative="1" as="geometry">
            <mxPoint as="offset" />
          </mxGeometry>
        </mxCell>
        <mxCell id="GV4KcYSHg5XsuIcx_LRW-104" value="$$I_c\ge2.6?$$" style="rhombus;whiteSpace=wrap;html=1;strokeWidth=2;rounded=1;arcSize=12;" vertex="1" parent="1">
          <mxGeometry x="210" y="460" width="80" height="65" as="geometry" />
        </mxCell>
        <mxCell id="GV4KcYSHg5XsuIcx_LRW-111" value="" style="whiteSpace=wrap;html=1;strokeWidth=2;rounded=1;arcSize=12;" vertex="1" parent="1">
          <mxGeometry x="190" y="560" width="120" height="60" as="geometry" />
        </mxCell>
        <mxCell id="GV4KcYSHg5XsuIcx_LRW-131" value="" style="shape=curlyBracket;whiteSpace=wrap;html=1;rounded=1;labelPosition=left;verticalLabelPosition=middle;align=right;verticalAlign=middle;" vertex="1" parent="1">
          <mxGeometry x="360" y="432.5" width="20" height="120" as="geometry" />
        </mxCell>
        <mxCell id="GV4KcYSHg5XsuIcx_LRW-132" value="Text" style="text;html=1;align=center;verticalAlign=middle;resizable=0;points=[];autosize=1;strokeColor=none;fillColor=none;" vertex="1" parent="1">
          <mxGeometry x="380" y="418" width="50" height="30" as="geometry" />
        </mxCell>
        <mxCell id="GV4KcYSHg5XsuIcx_LRW-133" value="Text" style="text;html=1;align=center;verticalAlign=middle;resizable=0;points=[];autosize=1;strokeColor=none;fillColor=none;" vertex="1" parent="1">
          <mxGeometry x="380" y="538" width="50" height="30" as="geometry" />
        </mxCell>
      </root>
    </mxGraphModel>
  </diagram>
</mxfile>
